<svg width="200" height="200" viewBox="0 0 200 200" fill="none" xmlns="http://www.w3.org/2000/svg">
<g id="Group 1">
<g id="trou">
<circle id="ellipse" cx="100" cy="100" r="100" fill="black"/>
</g>
<g id="terre">
<circle id="Ellipse 2" cx="100" cy="100" r="50" fill="#08445E"/>
<path id="Intersect" fill-rule="evenodd" clip-rule="evenodd" d="M94.4433 50.3053C95.669 50.2255 96.7727 50.1517 97.5868 50.0966C98.3529 50.0447 99 50.6523 99 51.4202C99 51.97 98.6605 52.4627 98.1467 52.6584L92.8538 54.6747C92.291 54.8891 91.7798 55.2202 91.3539 55.646C89.6857 57.3143 89.6857 60.019 91.3539 61.6873L91.4881 61.8214C91.8271 62.1604 92.1093 62.552 92.3238 62.9809L93.6318 65.5968C94.064 66.4614 93.988 67.4933 93.4337 68.2852C92.6301 69.4332 91.0683 69.751 89.8799 69.0083L88.6328 68.2288C87.4097 67.4644 86.7442 66.0821 86.2339 64.7331C85.7845 63.5447 84.8681 62.3333 83 62.3333H80.8615C79.4147 62.3333 77.9872 62.6504 76.6762 63.2622C74.7233 64.1735 73.1211 65.6972 72.1128 67.6018L71.2873 69.1611C70.8797 69.9309 70.6667 70.7887 70.6667 71.6597V74.8977C70.6667 76.0587 71.6079 77 72.769 77C73.4293 77 73.8774 77.5581 74.3245 78.1149C74.7757 78.6768 75.2259 79.2375 75.8921 79.222C76.3882 79.2105 77.2373 78.6493 78.6667 77C80.8017 74.5365 81.8848 75.4715 82.4343 77.0542C83.2601 79.433 84.2056 81.9042 86.2201 83.415C87.5833 84.4374 89.2544 85 90.9584 85C91.6498 85 92.3382 84.9089 93.0058 84.7292L96.4965 83.7894C97.6517 83.4784 98.787 83.0835 99.9221 82.6886C101.509 82.1367 103.095 81.5849 104.736 81.2622C105.535 81.1049 106.413 81 107.333 81C109.81 81 112.895 82.8251 114.637 84.0097C115.563 84.6398 116.34 85.4536 117.012 86.3499C119.523 89.6969 123.462 91.6666 127.646 91.6666H130.333H130.333C130.335 91.6666 134.667 91.6674 135 96.6667C135.177 99.3282 132.71 101.706 130.364 103.349C127.939 105.046 125.823 107.283 124.931 110.106C124.536 111.357 124.391 112.671 124.397 113.983C124.409 116.525 124.184 120.931 122.667 123.667C121.134 126.429 117.409 129.06 115.501 130.284C114.732 130.778 113.912 131.181 113.072 131.541L109.65 133.007C108.13 133.659 106.798 134.681 105.776 135.982C104.41 137.721 103.667 139.869 103.667 142.081V143.333C103.667 144.254 102.92 145 102 145H101.607C101.01 145 100.443 144.743 100.072 144.276C98.8842 142.781 96.3333 139.302 96.3333 137V132.297C96.3333 128.805 97.0717 125.353 98.5 122.167C99.9283 118.98 101.475 114.634 98.5996 112.653C98.0212 112.255 97.2808 112 96.3333 112C94.632 112 93.5986 112.308 92.749 112.562C91.4348 112.954 90.5604 113.215 88.3333 112C84.6667 110 83 108 83 103.667C83 103.343 83.0297 103.029 83.0847 102.724C83.4797 100.538 85.1946 98.3894 86.7715 96.4139C89.053 93.5556 91.0456 91.0593 88.3333 89.3333C86.3568 88.0755 83.9012 87.6655 81.4457 87.2555C78.9724 86.8425 76.4992 86.4296 74.5162 85.1502L73.5468 84.5248C71.6553 83.3044 70.0899 81.6413 68.9863 79.6793L66.5027 75.264C65.299 73.1241 64.6667 70.7102 64.6667 68.255C64.6667 66.7978 64.8821 65.355 65.3107 63.9908C73.048 56.5354 83.182 51.5504 94.4433 50.3053Z" fill="#5AC635"/>
<path id="Arrow 2" d="M49.8232 99.8232C49.7256 99.9209 49.7256 100.079 49.8232 100.177L51.4142 101.768C51.5118 101.865 51.6701 101.865 51.7678 101.768C51.8654 101.67 51.8654 101.512 51.7678 101.414L50.3536 100L51.7678 98.5858C51.8654 98.4882 51.8654 98.3299 51.7678 98.2322C51.6701 98.1346 51.5118 98.1346 51.4142 98.2322L49.8232 99.8232ZM100 99.75H50V100.25H100V99.75Z" fill="white"/>
<path id="R" d="M80.0596 97.2744H79.0576V99H78.4922V94.7344H79.9043C80.3848 94.7344 80.7539 94.8438 81.0117 95.0625C81.2715 95.2812 81.4014 95.5996 81.4014 96.0176C81.4014 96.2832 81.3291 96.5146 81.1846 96.7119C81.042 96.9092 80.8428 97.0566 80.5869 97.1543L81.5889 98.9648V99H80.9854L80.0596 97.2744ZM79.0576 96.8145H79.9219C80.2012 96.8145 80.4229 96.7422 80.5869 96.5977C80.7529 96.4531 80.8359 96.2598 80.8359 96.0176C80.8359 95.7539 80.7568 95.5518 80.5986 95.4111C80.4424 95.2705 80.2158 95.1992 79.9189 95.1973H79.0576V96.8145Z" fill="white"/>
</g>
<g id="rs">
<circle id="rayons" cx="100" cy="100" r="10" fill="black" fill-opacity="0.5"/>
<path id="Arrow 1" d="M110.177 100.51C110.274 100.412 110.274 100.254 110.177 100.157L108.586 98.5656C108.488 98.4679 108.33 98.4679 108.232 98.5656C108.135 98.6632 108.135 98.8215 108.232 98.9191L109.646 100.333L108.232 101.748C108.135 101.845 108.135 102.003 108.232 102.101C108.33 102.199 108.488 102.199 108.586 102.101L110.177 100.51ZM100 100.583H110V100.083H100V100.583Z" fill="white"/>
<path id="Rs" d="M102.06 97.2744H101.058V99H100.492V94.7344H101.904C102.385 94.7344 102.754 94.8438 103.012 95.0625C103.271 95.2812 103.401 95.5996 103.401 96.0176C103.401 96.2832 103.329 96.5146 103.185 96.7119C103.042 96.9092 102.843 97.0566 102.587 97.1543L103.589 98.9648V99H102.985L102.06 97.2744ZM101.058 96.8145H101.922C102.201 96.8145 102.423 96.7422 102.587 96.5977C102.753 96.4531 102.836 96.2598 102.836 96.0176C102.836 95.7539 102.757 95.5518 102.599 95.4111C102.442 95.2705 102.216 95.1992 101.919 95.1973H101.058V96.8145ZM105.953 98.1592C105.953 98.0127 105.897 97.8994 105.786 97.8193C105.677 97.7373 105.484 97.667 105.209 97.6084C104.936 97.5498 104.718 97.4795 104.556 97.3975C104.396 97.3154 104.276 97.2178 104.198 97.1045C104.122 96.9912 104.084 96.8564 104.084 96.7002C104.084 96.4404 104.193 96.2207 104.412 96.041C104.633 95.8613 104.914 95.7715 105.256 95.7715C105.615 95.7715 105.906 95.8643 106.129 96.0498C106.354 96.2354 106.466 96.4727 106.466 96.7617H105.921C105.921 96.6133 105.857 96.4854 105.73 96.3779C105.605 96.2705 105.447 96.2168 105.256 96.2168C105.059 96.2168 104.904 96.2598 104.793 96.3457C104.682 96.4316 104.626 96.5439 104.626 96.6826C104.626 96.8135 104.678 96.9121 104.781 96.9785C104.885 97.0449 105.071 97.1084 105.341 97.1689C105.612 97.2295 105.832 97.3018 106 97.3857C106.168 97.4697 106.292 97.5713 106.372 97.6904C106.454 97.8076 106.495 97.9512 106.495 98.1211C106.495 98.4043 106.382 98.6318 106.155 98.8037C105.929 98.9736 105.635 99.0586 105.273 99.0586C105.02 99.0586 104.795 99.0137 104.6 98.9238C104.404 98.834 104.251 98.709 104.14 98.5488C104.03 98.3867 103.976 98.2119 103.976 98.0244H104.518C104.527 98.2061 104.6 98.3506 104.734 98.458C104.871 98.5635 105.051 98.6162 105.273 98.6162C105.479 98.6162 105.643 98.5752 105.766 98.4932C105.891 98.4092 105.953 98.2979 105.953 98.1592Z" fill="white"/>
</g>
</g>
</svg>
