<svg width="337" height="337" viewBox="0 0 337 337" fill="none" xmlns="http://www.w3.org/2000/svg">
<circle cx="164.999" cy="162" r="100" fill="url(#paint0_radial)"/>
<path d="M163.231 54.7678C164.207 55.7441 165.79 55.7441 166.767 54.7678L182.677 38.8579C183.653 37.8815 183.653 36.2986 182.677 35.3223C181.7 34.346 180.117 34.346 179.141 35.3223L164.999 49.4645L150.857 35.3223C149.88 34.346 148.297 34.346 147.321 35.3223C146.345 36.2986 146.345 37.8815 147.321 38.8579L163.231 54.7678ZM162.499 0L162.499 53H167.499L167.499 0L162.499 0Z" fill="white"/>
<path d="M170.822 91.3731C169.924 90.3247 168.345 90.2033 167.297 91.1018L150.213 105.744C149.165 106.642 149.043 108.221 149.942 109.269C150.84 110.317 152.419 110.439 153.467 109.54L168.653 96.5251L181.668 111.711C182.566 112.759 184.145 112.881 185.193 111.982C186.241 111.084 186.363 109.505 185.464 108.457L170.822 91.3731ZM167.491 144.192L171.417 93.1918L166.431 92.8082L162.506 143.808L167.491 144.192Z" fill="white"/>
<path d="M234.377 130.77C234.803 129.457 234.083 128.047 232.769 127.622L211.364 120.688C210.051 120.262 208.641 120.982 208.216 122.296C207.79 123.609 208.51 125.019 209.824 125.444L228.85 131.608L222.687 150.634C222.261 151.948 222.981 153.358 224.294 153.783C225.608 154.209 227.018 153.489 227.443 152.175L234.377 130.77ZM186.136 156.227L233.136 132.227L230.862 127.773L183.862 151.773L186.136 156.227Z" fill="white"/>
<path d="M235.209 211.061C236.55 210.732 237.37 209.378 237.042 208.037L231.686 186.184C231.357 184.843 230.003 184.023 228.662 184.351C227.321 184.68 226.501 186.033 226.829 187.374L231.59 206.8L212.165 211.561C210.824 211.889 210.004 213.243 210.332 214.584C210.661 215.925 212.014 216.745 213.355 216.417L235.209 211.061ZM186.226 182.218L233.317 210.77L235.91 206.495L188.818 177.943L186.226 182.218Z" fill="white"/>
<path d="M163.231 243.768C164.207 244.744 165.79 244.744 166.767 243.768L182.677 227.858C183.653 226.882 183.653 225.299 182.677 224.322C181.7 223.346 180.117 223.346 179.141 224.322L164.999 238.464L150.857 224.322C149.88 223.346 148.297 223.346 147.321 224.322C146.345 225.299 146.345 226.882 147.321 227.858L163.231 243.768ZM162.499 183L162.499 242L167.499 242L167.499 183L162.499 183Z" fill="white"/>
<path d="M105.376 212.828C105.26 214.204 106.281 215.414 107.657 215.53L130.077 217.423C131.453 217.539 132.663 216.518 132.779 215.142C132.895 213.766 131.874 212.557 130.498 212.44L110.569 210.758L112.251 190.829C112.367 189.453 111.346 188.244 109.97 188.127C108.595 188.011 107.385 189.032 107.269 190.408L105.376 212.828ZM145.386 178.09L106.255 211.129L109.48 214.949L148.612 181.91L145.386 178.09Z" fill="white"/>
<path d="M98.2476 121.616C96.9307 122.03 96.1995 123.434 96.6144 124.751L103.376 146.211C103.791 147.528 105.195 148.259 106.512 147.844C107.828 147.43 108.56 146.026 108.145 144.709L102.135 125.633L121.21 119.623C122.527 119.208 123.258 117.804 122.843 116.487C122.428 115.17 121.025 114.439 119.708 114.854L98.2476 121.616ZM148.154 146.783L100.154 121.783L97.844 126.217L145.844 151.217L148.154 146.783Z" fill="white"/>
<path d="M244.477 73.0204C244.529 74.4002 245.689 75.4767 247.069 75.425L269.553 74.5826C270.933 74.5309 272.009 73.3705 271.958 71.9907C271.906 70.611 270.746 69.5344 269.366 69.5861L249.38 70.3349L248.631 50.349C248.579 48.9692 247.419 47.8926 246.039 47.9443C244.659 47.996 243.583 49.1564 243.635 50.5362L244.477 73.0204ZM281.19 32.3728L245.143 71.2265L248.808 74.6271L284.855 35.7735L281.19 32.3728Z" fill="white"/>
<path d="M87.7116 75.1982C89.0867 75.3229 90.3025 74.3093 90.4272 72.9342L92.4594 50.5262C92.5841 49.1511 91.5705 47.9353 90.1954 47.8106C88.8204 47.6859 87.6045 48.6995 87.4798 50.0746L85.6734 69.9928L65.7552 68.1864C64.3801 68.0617 63.1643 69.0753 63.0396 70.4504C62.9149 71.8255 63.9285 73.0413 65.3036 73.166L87.7116 75.1982ZM52.0786 33.6009L86.0172 74.3093L89.8576 71.1075L55.9191 30.3991L52.0786 33.6009Z" fill="white"/>
<path d="M166.681 281.15C165.659 280.222 164.078 280.296 163.149 281.318L148.011 297.964C147.082 298.985 147.157 300.566 148.178 301.495C149.2 302.424 150.781 302.349 151.71 301.328L165.166 286.532L179.963 299.988C180.984 300.917 182.565 300.842 183.494 299.82C184.423 298.799 184.348 297.218 183.327 296.289L166.681 281.15ZM170.007 335.822L167.496 282.882L162.502 283.118L165.012 336.059L170.007 335.822Z" fill="white"/>
<path d="M84.2165 247.761C84.0847 246.387 82.8637 245.38 81.4893 245.511L59.092 247.659C57.7176 247.79 56.7102 249.011 56.842 250.386C56.9738 251.76 58.1948 252.768 59.5692 252.636L79.4779 250.727L81.3866 270.636C81.5183 272.01 82.7393 273.018 84.1137 272.886C85.4882 272.754 86.4955 271.533 86.3638 270.159L84.2165 247.761ZM49.9273 290.473L83.6563 249.591L79.7995 246.409L46.0705 287.291L49.9273 290.473Z" fill="white"/>
<path d="M249.239 239.512C247.865 239.379 246.643 240.385 246.51 241.759L244.345 264.155C244.212 265.529 245.218 266.751 246.593 266.884C247.967 267.017 249.189 266.01 249.322 264.636L251.247 244.729L271.154 246.654C272.528 246.787 273.75 245.78 273.883 244.406C274.016 243.032 273.009 241.81 271.635 241.677L249.239 239.512ZM284.624 281.32L250.929 240.411L247.069 243.589L280.765 284.499L284.624 281.32Z" fill="white"/>
<path d="M281.232 166.231C280.255 167.207 280.254 168.79 281.23 169.767L297.13 185.686C298.106 186.663 299.689 186.664 300.666 185.688C301.643 184.713 301.644 183.13 300.668 182.153L286.534 168.002L300.685 153.869C301.662 152.893 301.663 151.31 300.687 150.333C299.712 149.356 298.129 149.355 297.152 150.331L281.232 166.231ZM336 165.532L283 165.5L282.997 170.5L335.997 170.532L336 165.532Z" fill="white"/>
<path d="M55.7489 170.044C56.7343 169.077 56.749 167.494 55.7819 166.509L40.0209 150.451C39.0537 149.466 37.4709 149.451 36.4855 150.418C35.5001 151.386 35.4854 152.968 36.4526 153.954L50.4623 168.227L36.1891 182.237C35.2037 183.204 35.1889 184.787 36.1561 185.772C37.1233 186.758 38.7061 186.772 39.6915 185.805L55.7489 170.044ZM0.97671 170.266L53.9744 170.76L54.021 165.76L1.02329 165.266L0.97671 170.266Z" fill="white"/>
<defs>
<radialGradient id="paint0_radial" cx="0" cy="0" r="1" gradientUnits="userSpaceOnUse" gradientTransform="translate(164.999 162) rotate(90) scale(100)">
<stop stop-color="#ECCE66"/>
<stop offset="0.0001" stop-color="#FFE587" stop-opacity="0.828125"/>
<stop offset="1" stop-color="#F8594E"/>
</radialGradient>
</defs>
</svg>
