<svg width="375" height="308" viewBox="0 0 375 308" fill="none" xmlns="http://www.w3.org/2000/svg">
<g id="Group 1">
<path id="Vector" d="M146.883 241.234C196.048 241.234 235.904 201.378 235.904 152.214C235.904 103.049 196.048 63.1929 146.883 63.1929C97.7186 63.1929 57.8626 103.049 57.8626 152.214C57.8626 201.378 97.7186 241.234 146.883 241.234Z" fill="url(#paint0_radial)"/>
<path id="Vector_2" d="M145.31 56.7547C146.178 57.6238 147.588 57.6238 148.457 56.7547L162.62 42.5916C163.489 41.7224 163.489 40.3133 162.62 39.4442C161.751 38.5751 160.342 38.5751 159.473 39.4442L146.883 52.0337L134.294 39.4442C133.424 38.5751 132.015 38.5751 131.146 39.4442C130.277 40.3133 130.277 41.7224 131.146 42.5916L145.31 56.7547ZM144.658 8V55.181H149.109V8H144.658Z" fill="white"/>
<path id="Vector_3" d="M152.067 89.341C151.268 88.4077 149.862 88.2997 148.929 89.0995L133.721 102.134C132.788 102.934 132.679 104.339 133.48 105.272C134.279 106.205 135.685 106.314 136.618 105.513L150.136 93.9274L161.722 107.446C162.522 108.379 163.927 108.488 164.86 107.687C165.793 106.888 165.902 105.482 165.101 104.549L152.067 89.341ZM149.102 136.361L152.597 90.9601L148.158 90.6186L144.664 136.019L149.102 136.361Z" fill="white"/>
<path id="Vector_4" d="M208.644 124.412C209.023 123.244 208.382 121.988 207.213 121.61L188.158 115.437C186.989 115.058 185.734 115.699 185.355 116.869C184.976 118.038 185.617 119.293 186.787 119.671L203.724 125.158L198.238 142.096C197.858 143.265 198.499 144.52 199.668 144.899C200.838 145.278 202.093 144.637 202.472 143.467L208.644 124.412ZM165.7 147.074L207.539 125.71L205.515 121.745L163.675 143.109L165.7 147.074Z" fill="white"/>
<path id="Vector_5" d="M209.385 195.888C210.579 195.595 211.309 194.39 211.017 193.196L206.249 173.742C205.956 172.549 204.75 171.819 203.557 172.111C202.363 172.404 201.633 173.608 201.925 174.802L206.163 192.095L188.871 196.333C187.677 196.625 186.947 197.831 187.239 199.024C187.532 200.218 188.736 200.948 189.93 200.656L209.385 195.888ZM165.78 170.212L207.701 195.629L210.009 191.823L168.087 166.406L165.78 170.212Z" fill="white"/>
<path id="Vector_6" d="M145.31 225.004C146.178 225.873 147.588 225.873 148.457 225.004L162.62 210.841C163.489 209.972 163.489 208.563 162.62 207.693C161.751 206.824 160.342 206.824 159.473 207.693L146.883 220.282L134.294 207.693C133.424 206.824 132.015 206.824 131.146 207.693C130.277 208.563 130.277 209.972 131.146 210.841L145.31 225.004ZM144.658 170.908V223.43H149.109V170.908H144.658Z" fill="white"/>
<path id="Vector_7" d="M93.8065 197.461C93.7033 198.686 94.6122 199.763 95.8371 199.866L115.796 201.552C117.02 201.655 118.098 200.746 118.201 199.521C118.304 198.296 117.395 197.22 116.17 197.116L98.4294 195.618L99.9267 177.877C100.03 176.653 99.1211 175.576 97.8962 175.472C96.6721 175.369 95.595 176.278 95.4917 177.503L93.8065 197.461ZM129.424 166.537L94.589 195.949L97.46 199.349L132.296 169.938L129.424 166.537Z" fill="white"/>
<path id="Vector_8" d="M87.4608 116.264C86.2884 116.632 85.6375 117.882 86.0069 119.054L92.0261 138.158C92.3955 139.331 93.6454 139.981 94.8178 139.612C95.9893 139.243 96.6409 137.993 96.2715 136.821L90.9214 119.839L107.902 114.489C109.074 114.12 109.725 112.87 109.356 111.698C108.986 110.525 107.737 109.874 106.565 110.244L87.4608 116.264ZM131.888 138.667L89.1579 116.412L87.1015 120.359L129.831 142.615L131.888 138.667Z" fill="white"/>
<path id="Vector_9" d="M217.635 73.0033C217.682 74.2316 218.714 75.1899 219.943 75.1439L239.958 74.394C241.187 74.348 242.145 73.315 242.099 72.0867C242.053 70.8585 241.02 69.9001 239.792 69.9461L222 70.6127L221.333 52.8211C221.287 51.5928 220.254 50.6344 219.026 50.6804C217.797 50.7264 216.839 51.7594 216.886 52.9877L217.635 73.0033ZM250.318 36.8185L218.228 71.4064L221.491 74.4336L253.58 39.8458L250.318 36.8185Z" fill="white"/>
<path id="Vector_10" d="M78.0815 74.942C79.3057 75.053 80.388 74.1507 80.499 72.9266L82.3081 52.9788C82.4191 51.7547 81.5168 50.6724 80.2926 50.5614C79.0686 50.4504 77.9862 51.3527 77.8752 52.5768L76.2671 70.3081L58.5358 68.7001C57.3117 68.589 56.2294 69.4914 56.1183 70.7155C56.0073 71.9396 56.9096 73.0219 58.1338 73.1329L78.0815 74.942ZM46.3608 37.9118L76.5732 74.1507L79.9919 71.3004L49.7796 35.0615L46.3608 37.9118Z" fill="white"/>
<path id="Vector_11" d="M148.381 258.282C147.471 257.456 146.064 257.522 145.237 258.431L131.761 273.25C130.934 274.159 131 275.566 131.909 276.393C132.819 277.22 134.226 277.153 135.053 276.245L147.032 263.073L160.204 275.052C161.113 275.879 162.521 275.812 163.348 274.902C164.175 273.993 164.108 272.586 163.199 271.759L148.381 258.282ZM151.342 306.951L149.106 259.824L144.661 260.034L146.895 307.162L151.342 306.951Z" fill="white"/>
<path id="Vector_12" d="M74.9702 228.559C74.8528 227.336 73.7659 226.439 72.5424 226.556L52.6041 228.468C51.3806 228.585 50.4838 229.672 50.6012 230.896C50.7185 232.119 51.8054 233.016 53.0289 232.899L70.7518 231.199L72.451 248.922C72.5682 250.145 73.6552 251.043 74.8787 250.925C76.1022 250.808 76.999 249.721 76.8817 248.498L74.9702 228.559ZM44.4457 266.581L74.4715 230.188L71.0381 227.355L41.0123 263.749L44.4457 266.581Z" fill="white"/>
<path id="Vector_13" d="M221.874 221.215C220.651 221.097 219.563 221.993 219.445 223.216L217.518 243.153C217.399 244.376 218.295 245.464 219.519 245.582C220.742 245.701 221.83 244.804 221.948 243.581L223.662 225.86L241.383 227.573C242.607 227.692 243.694 226.795 243.813 225.572C243.931 224.349 243.035 223.261 241.812 223.143L221.874 221.215ZM253.374 258.433L223.379 222.016L219.943 224.845L249.939 261.263L253.374 258.433Z" fill="white"/>
<path id="Vector_14" d="M250.355 155.98C249.485 156.849 249.484 158.258 250.353 159.128L264.507 173.299C265.376 174.169 266.785 174.17 267.655 173.301C268.525 172.433 268.526 171.024 267.657 170.154L255.075 157.557L267.672 144.975C268.542 144.107 268.543 142.697 267.674 141.828C266.806 140.958 265.397 140.957 264.527 141.826L250.355 155.98ZM299.11 155.358L251.929 155.329L251.926 159.78L299.107 159.809L299.11 155.358Z" fill="white"/>
<path id="Vector_15" d="M49.6281 159.374C50.5053 158.514 50.5184 157.104 49.6575 156.228L35.6269 141.933C34.7659 141.056 33.3569 141.042 32.4797 141.903C31.6025 142.765 31.5894 144.173 32.4504 145.051L44.9219 157.757L32.2158 170.229C31.3386 171.09 31.3254 172.499 32.1864 173.376C33.0475 174.253 34.4565 174.266 35.3337 173.405L49.6281 159.374ZM0.869476 159.572L48.0484 160.012L48.0899 155.561L0.910942 155.121L0.869476 159.572Z" fill="white"/>
<path id="Arrow 2" d="M152.646 24.6464C152.451 24.8417 152.451 25.1583 152.646 25.3536L155.828 28.5355C156.024 28.7308 156.34 28.7308 156.536 28.5355C156.731 28.3403 156.731 28.0237 156.536 27.8284L153.707 25L156.536 22.1716C156.731 21.9763 156.731 21.6597 156.536 21.4645C156.34 21.2692 156.024 21.2692 155.828 21.4645L152.646 24.6464ZM318 24.5L153 24.5V25.5L318 25.5V24.5Z" fill="white"/>
<path id="Gravit&#195;&#169;" d="M214.148 16.1348C213.667 16.8249 212.993 17.3424 212.127 17.6875C211.268 18.026 210.265 18.1953 209.119 18.1953C207.96 18.1953 206.932 17.9251 206.033 17.3848C205.135 16.8379 204.438 16.0632 203.943 15.0605C203.455 14.0579 203.204 12.8958 203.191 11.5742V10.334C203.191 8.19206 203.689 6.5319 204.686 5.35352C205.688 4.17513 207.094 3.58594 208.904 3.58594C210.389 3.58594 211.583 3.9668 212.488 4.72852C213.393 5.48372 213.947 6.55794 214.148 7.95117H212.273C211.922 6.06966 210.802 5.12891 208.914 5.12891C207.658 5.12891 206.704 5.57161 206.053 6.45703C205.408 7.33594 205.083 8.61198 205.076 10.2852V11.4473C205.076 13.0423 205.441 14.3118 206.17 15.2559C206.899 16.1934 207.885 16.6621 209.129 16.6621C209.832 16.6621 210.447 16.584 210.975 16.4277C211.502 16.2715 211.938 16.0078 212.283 15.6367V12.4434H208.992V10.9199H214.148V16.1348ZM222.107 9.05469C221.834 9.00911 221.538 8.98633 221.219 8.98633C220.034 8.98633 219.23 9.49089 218.807 10.5V18H217V7.43359H218.758L218.787 8.6543C219.38 7.71029 220.219 7.23828 221.307 7.23828C221.658 7.23828 221.925 7.28385 222.107 7.375V9.05469ZM229.91 18C229.806 17.7917 229.721 17.4206 229.656 16.8867C228.816 17.7591 227.814 18.1953 226.648 18.1953C225.607 18.1953 224.751 17.9023 224.08 17.3164C223.416 16.724 223.084 15.9753 223.084 15.0703C223.084 13.9701 223.501 13.1172 224.334 12.5117C225.174 11.8997 226.352 11.5938 227.869 11.5938H229.627V10.7637C229.627 10.1322 229.438 9.63086 229.061 9.25977C228.683 8.88216 228.126 8.69336 227.391 8.69336C226.746 8.69336 226.206 8.85612 225.77 9.18164C225.333 9.50716 225.115 9.90104 225.115 10.3633H223.299C223.299 9.83594 223.484 9.32812 223.855 8.83984C224.233 8.34505 224.741 7.95443 225.379 7.66797C226.023 7.38151 226.73 7.23828 227.498 7.23828C228.715 7.23828 229.669 7.54427 230.359 8.15625C231.049 8.76172 231.408 9.59831 231.434 10.666V15.5293C231.434 16.4993 231.557 17.2708 231.805 17.8438V18H229.91ZM226.912 16.623C227.479 16.623 228.016 16.4766 228.523 16.1836C229.031 15.8906 229.399 15.5098 229.627 15.041V12.873H228.211C225.997 12.873 224.891 13.5208 224.891 14.8164C224.891 15.3828 225.079 15.8255 225.457 16.1445C225.835 16.4635 226.32 16.623 226.912 16.623ZM237.596 15.5488L240.213 7.43359H242.059L238.27 18H236.893L233.064 7.43359H234.91L237.596 15.5488ZM245.76 18H243.953V7.43359H245.76V18ZM243.807 4.63086C243.807 4.33789 243.895 4.09049 244.07 3.88867C244.253 3.68685 244.52 3.58594 244.871 3.58594C245.223 3.58594 245.49 3.68685 245.672 3.88867C245.854 4.09049 245.945 4.33789 245.945 4.63086C245.945 4.92383 245.854 5.16797 245.672 5.36328C245.49 5.55859 245.223 5.65625 244.871 5.65625C244.52 5.65625 244.253 5.55859 244.07 5.36328C243.895 5.16797 243.807 4.92383 243.807 4.63086ZM251.111 4.875V7.43359H253.084V8.83008H251.111V15.3828C251.111 15.806 251.199 16.125 251.375 16.3398C251.551 16.5482 251.85 16.6523 252.273 16.6523C252.482 16.6523 252.768 16.6133 253.133 16.5352V18C252.658 18.1302 252.195 18.1953 251.746 18.1953C250.939 18.1953 250.33 17.9512 249.92 17.4629C249.51 16.9746 249.305 16.2812 249.305 15.3828V8.83008H247.381V7.43359H249.305V4.875H251.111ZM259.588 18.1953C258.156 18.1953 256.99 17.7266 256.092 16.7891C255.193 15.8451 254.744 14.5853 254.744 13.0098V12.6777C254.744 11.6296 254.943 10.6953 255.34 9.875C255.743 9.04818 256.303 8.40365 257.02 7.94141C257.742 7.47266 258.523 7.23828 259.363 7.23828C260.737 7.23828 261.805 7.69076 262.566 8.5957C263.328 9.50065 263.709 10.7962 263.709 12.4824V13.2344H256.551C256.577 14.276 256.88 15.1191 257.459 15.7637C258.045 16.4017 258.787 16.7207 259.686 16.7207C260.324 16.7207 260.864 16.5905 261.307 16.3301C261.749 16.0697 262.137 15.7246 262.469 15.2949L263.572 16.1543C262.687 17.515 261.359 18.1953 259.588 18.1953ZM259.363 8.72266C258.634 8.72266 258.022 8.98958 257.527 9.52344C257.033 10.0508 256.727 10.793 256.609 11.75H261.902V11.6133C261.85 10.6953 261.603 9.98568 261.16 9.48438C260.717 8.97656 260.118 8.72266 259.363 8.72266ZM260.242 3H262.43L259.812 5.87109H258.357L260.242 3Z" fill="white"/>
<path id="Arrow 3" d="M209.646 126.646C209.451 126.842 209.451 127.158 209.646 127.354L212.828 130.536C213.024 130.731 213.34 130.731 213.536 130.536C213.731 130.34 213.731 130.024 213.536 129.828L210.707 127L213.536 124.172C213.731 123.976 213.731 123.66 213.536 123.464C213.34 123.269 213.024 123.269 212.828 123.464L209.646 126.646ZM375 126.5L210 126.5V127.5L375 127.5V126.5Z" fill="white"/>
<path id="Pression gaz" d="M244.525 114.434V120H242.65V105.781H247.895C249.451 105.781 250.668 106.178 251.547 106.973C252.432 107.767 252.875 108.818 252.875 110.127C252.875 111.507 252.442 112.572 251.576 113.32C250.717 114.062 249.483 114.434 247.875 114.434H244.525ZM244.525 112.9H247.895C248.897 112.9 249.665 112.666 250.199 112.197C250.733 111.722 251 111.038 251 110.146C251 109.3 250.733 108.623 250.199 108.115C249.665 107.607 248.933 107.344 248.002 107.324H244.525V112.9ZM260.092 111.055C259.818 111.009 259.522 110.986 259.203 110.986C258.018 110.986 257.214 111.491 256.791 112.5V120H254.984V109.434H256.742L256.771 110.654C257.364 109.71 258.204 109.238 259.291 109.238C259.643 109.238 259.91 109.284 260.092 109.375V111.055ZM265.951 120.195C264.519 120.195 263.354 119.727 262.455 118.789C261.557 117.845 261.107 116.585 261.107 115.01V114.678C261.107 113.63 261.306 112.695 261.703 111.875C262.107 111.048 262.667 110.404 263.383 109.941C264.105 109.473 264.887 109.238 265.727 109.238C267.1 109.238 268.168 109.691 268.93 110.596C269.691 111.501 270.072 112.796 270.072 114.482V115.234H262.914C262.94 116.276 263.243 117.119 263.822 117.764C264.408 118.402 265.15 118.721 266.049 118.721C266.687 118.721 267.227 118.59 267.67 118.33C268.113 118.07 268.5 117.725 268.832 117.295L269.936 118.154C269.05 119.515 267.722 120.195 265.951 120.195ZM265.727 110.723C264.997 110.723 264.385 110.99 263.891 111.523C263.396 112.051 263.09 112.793 262.973 113.75H268.266V113.613C268.214 112.695 267.966 111.986 267.523 111.484C267.081 110.977 266.482 110.723 265.727 110.723ZM278.324 117.197C278.324 116.709 278.139 116.331 277.768 116.064C277.403 115.791 276.762 115.557 275.844 115.361C274.932 115.166 274.206 114.932 273.666 114.658C273.132 114.385 272.735 114.059 272.475 113.682C272.221 113.304 272.094 112.855 272.094 112.334C272.094 111.468 272.458 110.736 273.188 110.137C273.923 109.538 274.861 109.238 276 109.238C277.198 109.238 278.168 109.548 278.91 110.166C279.659 110.785 280.033 111.576 280.033 112.539H278.217C278.217 112.044 278.005 111.618 277.582 111.26C277.165 110.902 276.638 110.723 276 110.723C275.342 110.723 274.828 110.866 274.457 111.152C274.086 111.439 273.9 111.813 273.9 112.275C273.9 112.712 274.073 113.04 274.418 113.262C274.763 113.483 275.385 113.695 276.283 113.896C277.188 114.098 277.921 114.339 278.48 114.619C279.04 114.899 279.454 115.238 279.721 115.635C279.994 116.025 280.131 116.504 280.131 117.07C280.131 118.014 279.753 118.773 278.998 119.346C278.243 119.912 277.263 120.195 276.059 120.195C275.212 120.195 274.464 120.046 273.812 119.746C273.161 119.447 272.65 119.03 272.279 118.496C271.915 117.956 271.732 117.373 271.732 116.748H273.539C273.572 117.354 273.812 117.835 274.262 118.193C274.717 118.545 275.316 118.721 276.059 118.721C276.742 118.721 277.289 118.584 277.699 118.311C278.116 118.031 278.324 117.66 278.324 117.197ZM288.637 117.197C288.637 116.709 288.451 116.331 288.08 116.064C287.715 115.791 287.074 115.557 286.156 115.361C285.245 115.166 284.519 114.932 283.979 114.658C283.445 114.385 283.048 114.059 282.787 113.682C282.533 113.304 282.406 112.855 282.406 112.334C282.406 111.468 282.771 110.736 283.5 110.137C284.236 109.538 285.173 109.238 286.312 109.238C287.51 109.238 288.48 109.548 289.223 110.166C289.971 110.785 290.346 111.576 290.346 112.539H288.529C288.529 112.044 288.318 111.618 287.895 111.26C287.478 110.902 286.951 110.723 286.312 110.723C285.655 110.723 285.141 110.866 284.77 111.152C284.398 111.439 284.213 111.813 284.213 112.275C284.213 112.712 284.385 113.04 284.73 113.262C285.076 113.483 285.697 113.695 286.596 113.896C287.501 114.098 288.233 114.339 288.793 114.619C289.353 114.899 289.766 115.238 290.033 115.635C290.307 116.025 290.443 116.504 290.443 117.07C290.443 118.014 290.066 118.773 289.311 119.346C288.555 119.912 287.576 120.195 286.371 120.195C285.525 120.195 284.776 120.046 284.125 119.746C283.474 119.447 282.963 119.03 282.592 118.496C282.227 117.956 282.045 117.373 282.045 116.748H283.852C283.884 117.354 284.125 117.835 284.574 118.193C285.03 118.545 285.629 118.721 286.371 118.721C287.055 118.721 287.602 118.584 288.012 118.311C288.428 118.031 288.637 117.66 288.637 117.197ZM294.76 120H292.953V109.434H294.76V120ZM292.807 106.631C292.807 106.338 292.895 106.09 293.07 105.889C293.253 105.687 293.52 105.586 293.871 105.586C294.223 105.586 294.49 105.687 294.672 105.889C294.854 106.09 294.945 106.338 294.945 106.631C294.945 106.924 294.854 107.168 294.672 107.363C294.49 107.559 294.223 107.656 293.871 107.656C293.52 107.656 293.253 107.559 293.07 107.363C292.895 107.168 292.807 106.924 292.807 106.631ZM297.182 114.619C297.182 113.584 297.383 112.653 297.787 111.826C298.197 110.999 298.764 110.361 299.486 109.912C300.215 109.463 301.046 109.238 301.977 109.238C303.415 109.238 304.577 109.736 305.463 110.732C306.355 111.729 306.801 113.053 306.801 114.707V114.834C306.801 115.863 306.602 116.787 306.205 117.607C305.814 118.421 305.251 119.056 304.516 119.512C303.786 119.967 302.947 120.195 301.996 120.195C300.564 120.195 299.402 119.697 298.51 118.701C297.624 117.705 297.182 116.387 297.182 114.746V114.619ZM298.998 114.834C298.998 116.006 299.268 116.947 299.809 117.656C300.355 118.366 301.085 118.721 301.996 118.721C302.914 118.721 303.643 118.363 304.184 117.646C304.724 116.924 304.994 115.915 304.994 114.619C304.994 113.46 304.717 112.523 304.164 111.807C303.617 111.084 302.888 110.723 301.977 110.723C301.085 110.723 300.365 111.077 299.818 111.787C299.271 112.497 298.998 113.512 298.998 114.834ZM310.775 109.434L310.834 110.762C311.641 109.746 312.696 109.238 313.998 109.238C316.231 109.238 317.357 110.498 317.377 113.018V120H315.57V113.008C315.564 112.246 315.388 111.683 315.043 111.318C314.704 110.954 314.174 110.771 313.451 110.771C312.865 110.771 312.351 110.928 311.908 111.24C311.465 111.553 311.12 111.963 310.873 112.471V120H309.066V109.434H310.775ZM324.633 114.629C324.633 112.982 325.014 111.673 325.775 110.703C326.537 109.727 327.546 109.238 328.803 109.238C330.092 109.238 331.098 109.694 331.82 110.605L331.908 109.434H333.559V119.746C333.559 121.113 333.152 122.191 332.338 122.979C331.531 123.766 330.443 124.16 329.076 124.16C328.314 124.16 327.569 123.997 326.84 123.672C326.111 123.346 325.554 122.9 325.17 122.334L326.107 121.25C326.882 122.207 327.829 122.686 328.949 122.686C329.828 122.686 330.512 122.438 331 121.943C331.495 121.449 331.742 120.752 331.742 119.854V118.945C331.02 119.779 330.033 120.195 328.783 120.195C327.546 120.195 326.544 119.697 325.775 118.701C325.014 117.705 324.633 116.348 324.633 114.629ZM326.449 114.834C326.449 116.025 326.693 116.963 327.182 117.646C327.67 118.324 328.354 118.662 329.232 118.662C330.372 118.662 331.208 118.145 331.742 117.109V112.285C331.189 111.276 330.359 110.771 329.252 110.771C328.373 110.771 327.686 111.113 327.191 111.797C326.697 112.48 326.449 113.493 326.449 114.834ZM342.816 120C342.712 119.792 342.628 119.421 342.562 118.887C341.723 119.759 340.72 120.195 339.555 120.195C338.513 120.195 337.657 119.902 336.986 119.316C336.322 118.724 335.99 117.975 335.99 117.07C335.99 115.97 336.407 115.117 337.24 114.512C338.08 113.9 339.258 113.594 340.775 113.594H342.533V112.764C342.533 112.132 342.344 111.631 341.967 111.26C341.589 110.882 341.033 110.693 340.297 110.693C339.652 110.693 339.112 110.856 338.676 111.182C338.24 111.507 338.021 111.901 338.021 112.363H336.205C336.205 111.836 336.391 111.328 336.762 110.84C337.139 110.345 337.647 109.954 338.285 109.668C338.93 109.382 339.636 109.238 340.404 109.238C341.622 109.238 342.576 109.544 343.266 110.156C343.956 110.762 344.314 111.598 344.34 112.666V117.529C344.34 118.499 344.464 119.271 344.711 119.844V120H342.816ZM339.818 118.623C340.385 118.623 340.922 118.477 341.43 118.184C341.938 117.891 342.305 117.51 342.533 117.041V114.873H341.117C338.904 114.873 337.797 115.521 337.797 116.816C337.797 117.383 337.986 117.826 338.363 118.145C338.741 118.464 339.226 118.623 339.818 118.623ZM348.871 118.525H355.053V120H346.664V118.672L352.494 110.928H346.752V109.434H354.76V110.713L348.871 118.525Z" fill="white"/>
</g>
<defs>
<radialGradient id="paint0_radial" cx="0" cy="0" r="1" gradientUnits="userSpaceOnUse" gradientTransform="translate(146.883 152.214) rotate(90) scale(89.0208)">
<stop stop-color="#ECCE66"/>
<stop offset="0.0001" stop-color="#FFE587" stop-opacity="0.828125"/>
<stop offset="1" stop-color="#F8594E"/>
</radialGradient>
</defs>
</svg>
