<svg width="363" height="208" viewBox="0 0 363 208" fill="none" xmlns="http://www.w3.org/2000/svg">
<g filter="url(#filter0_bf)">
<circle cx="104" cy="104" r="100" fill="url(#paint0_radial)" style="mix-blend-mode:lighten"/>
</g>
<g filter="url(#filter1_b)">
<circle cx="104" cy="104" r="75" fill="black" fill-opacity="0.9"/>
</g>
<g filter="url(#filter2_d)">
<path d="M114.293 103.293C113.902 103.683 113.902 104.317 114.293 104.707L120.657 111.071C121.047 111.462 121.681 111.462 122.071 111.071C122.462 110.681 122.462 110.047 122.071 109.657L116.414 104L122.071 98.3431C122.462 97.9526 122.462 97.3195 122.071 96.9289C121.681 96.5384 121.047 96.5384 120.657 96.9289L114.293 103.293ZM271 103L115 103V105L271 105V103Z" fill="white"/>
</g>
<g filter="url(#filter3_d)">
<path d="M167.297 144.289C166.904 144.678 166.901 145.311 167.289 145.703L173.62 152.101C174.008 152.493 174.641 152.497 175.034 152.108C175.426 151.72 175.43 151.087 175.041 150.694L169.414 145.007L175.101 139.38C175.493 138.992 175.497 138.359 175.108 137.966C174.72 137.574 174.087 137.57 173.694 137.959L167.297 144.289ZM358.005 145L168.005 144L167.995 146L357.995 147L358.005 145Z" fill="white"/>
</g>
<path d="M209.088 96.5635C207.962 96.2399 207.142 95.8434 206.627 95.374C206.117 94.9001 205.861 94.3167 205.861 93.624C205.861 92.8402 206.174 92.193 206.798 91.6826C207.427 91.1676 208.243 90.9102 209.245 90.9102C209.929 90.9102 210.537 91.0423 211.07 91.3066C211.608 91.571 212.023 91.9355 212.314 92.4004C212.611 92.8652 212.759 93.3734 212.759 93.9248H211.439C211.439 93.3232 211.248 92.8516 210.865 92.5098C210.482 92.1634 209.942 91.9902 209.245 91.9902C208.598 91.9902 208.092 92.1338 207.728 92.4209C207.368 92.7035 207.188 93.0977 207.188 93.6035C207.188 94.0091 207.358 94.3532 207.7 94.6357C208.047 94.9137 208.632 95.1689 209.457 95.4014C210.286 95.6338 210.934 95.8913 211.398 96.1738C211.868 96.4518 212.214 96.7777 212.438 97.1514C212.665 97.5251 212.779 97.9648 212.779 98.4707C212.779 99.2773 212.465 99.9245 211.836 100.412C211.207 100.895 210.366 101.137 209.313 101.137C208.63 101.137 207.992 101.007 207.399 100.747C206.807 100.483 206.349 100.123 206.025 99.667C205.706 99.2113 205.547 98.694 205.547 98.1152H206.866C206.866 98.7168 207.087 99.193 207.529 99.5439C207.976 99.8903 208.571 100.063 209.313 100.063C210.006 100.063 210.537 99.9222 210.906 99.6396C211.275 99.3571 211.46 98.972 211.46 98.4844C211.46 97.9967 211.289 97.6208 210.947 97.3564C210.605 97.0876 209.986 96.8232 209.088 96.5635ZM215.644 101H214.379V93.6035H215.644V101ZM214.276 91.6416C214.276 91.4365 214.338 91.2633 214.461 91.1221C214.589 90.9808 214.775 90.9102 215.021 90.9102C215.268 90.9102 215.454 90.9808 215.582 91.1221C215.71 91.2633 215.773 91.4365 215.773 91.6416C215.773 91.8467 215.71 92.0176 215.582 92.1543C215.454 92.291 215.268 92.3594 215.021 92.3594C214.775 92.3594 214.589 92.291 214.461 92.1543C214.338 92.0176 214.276 91.8467 214.276 91.6416ZM218.87 93.6035L218.911 94.5332C219.476 93.8223 220.215 93.4668 221.126 93.4668C222.689 93.4668 223.478 94.3486 223.491 96.1123V101H222.227V96.1055C222.222 95.5723 222.099 95.1781 221.857 94.9229C221.62 94.6676 221.249 94.54 220.743 94.54C220.333 94.54 219.973 94.6494 219.663 94.8682C219.353 95.0869 219.112 95.374 218.938 95.7295V101H217.674V93.6035H218.87ZM225.098 97.2402C225.098 96.0872 225.364 95.1712 225.897 94.4922C226.431 93.8086 227.137 93.4668 228.017 93.4668C228.919 93.4668 229.623 93.7858 230.129 94.4238L230.19 93.6035H231.346V100.822C231.346 101.779 231.061 102.534 230.491 103.085C229.926 103.636 229.165 103.912 228.208 103.912C227.675 103.912 227.153 103.798 226.643 103.57C226.132 103.342 225.743 103.03 225.474 102.634L226.13 101.875C226.672 102.545 227.335 102.88 228.119 102.88C228.734 102.88 229.213 102.707 229.555 102.36C229.901 102.014 230.074 101.526 230.074 100.897V100.262C229.568 100.845 228.878 101.137 228.003 101.137C227.137 101.137 226.435 100.788 225.897 100.091C225.364 99.3936 225.098 98.4434 225.098 97.2402ZM226.369 97.3838C226.369 98.2178 226.54 98.874 226.882 99.3525C227.224 99.8265 227.702 100.063 228.317 100.063C229.115 100.063 229.701 99.7012 230.074 98.9766V95.5996C229.687 94.8932 229.106 94.54 228.331 94.54C227.716 94.54 227.235 94.7793 226.889 95.2578C226.542 95.7363 226.369 96.445 226.369 97.3838ZM237.826 100.269C237.334 100.847 236.612 101.137 235.659 101.137C234.871 101.137 234.269 100.909 233.854 100.453C233.444 99.9928 233.237 99.3138 233.232 98.416V93.6035H234.497V98.3818C234.497 99.5029 234.953 100.063 235.864 100.063C236.83 100.063 237.473 99.7035 237.792 98.9834V93.6035H239.057V101H237.854L237.826 100.269ZM242.358 101H241.094V90.5H242.358V101ZM248.955 101C248.882 100.854 248.823 100.594 248.777 100.221C248.189 100.831 247.488 101.137 246.672 101.137C245.943 101.137 245.343 100.932 244.874 100.521C244.409 100.107 244.177 99.5827 244.177 98.9492C244.177 98.179 244.468 97.582 245.052 97.1582C245.64 96.7298 246.465 96.5156 247.526 96.5156H248.757V95.9346C248.757 95.4925 248.625 95.1416 248.36 94.8818C248.096 94.6175 247.706 94.4854 247.191 94.4854C246.74 94.4854 246.362 94.5993 246.057 94.8271C245.751 95.055 245.599 95.3307 245.599 95.6543H244.327C244.327 95.2852 244.457 94.9297 244.717 94.5879C244.981 94.2415 245.337 93.9681 245.783 93.7676C246.234 93.5671 246.729 93.4668 247.267 93.4668C248.119 93.4668 248.786 93.681 249.27 94.1094C249.753 94.5332 250.003 95.1188 250.021 95.8662V99.2705C250.021 99.9495 250.108 100.49 250.281 100.891V101H248.955ZM246.856 100.036C247.253 100.036 247.629 99.9336 247.984 99.7285C248.34 99.5234 248.597 99.2568 248.757 98.9287V97.4111H247.766C246.216 97.4111 245.441 97.8646 245.441 98.7715C245.441 99.168 245.574 99.4779 245.838 99.7012C246.102 99.9245 246.442 100.036 246.856 100.036ZM255.579 94.7383C255.388 94.7064 255.18 94.6904 254.957 94.6904C254.128 94.6904 253.565 95.0436 253.269 95.75V101H252.004V93.6035H253.234L253.255 94.458C253.67 93.7972 254.257 93.4668 255.019 93.4668C255.265 93.4668 255.451 93.4987 255.579 93.5625V94.7383ZM258.122 101H256.857V93.6035H258.122V101ZM256.755 91.6416C256.755 91.4365 256.816 91.2633 256.939 91.1221C257.067 90.9808 257.254 90.9102 257.5 90.9102C257.746 90.9102 257.933 90.9808 258.061 91.1221C258.188 91.2633 258.252 91.4365 258.252 91.6416C258.252 91.8467 258.188 92.0176 258.061 92.1543C257.933 92.291 257.746 92.3594 257.5 92.3594C257.254 92.3594 257.067 92.291 256.939 92.1543C256.816 92.0176 256.755 91.8467 256.755 91.6416ZM261.868 91.8125V93.6035H263.249V94.5811H261.868V99.168C261.868 99.4642 261.93 99.6875 262.053 99.8379C262.176 99.9837 262.385 100.057 262.682 100.057C262.827 100.057 263.028 100.029 263.283 99.9746V101C262.951 101.091 262.627 101.137 262.312 101.137C261.747 101.137 261.321 100.966 261.034 100.624C260.747 100.282 260.604 99.7969 260.604 99.168V94.5811H259.257V93.6035H260.604V91.8125H261.868ZM267.802 101.137C266.799 101.137 265.983 100.809 265.354 100.152C264.726 99.4915 264.411 98.6097 264.411 97.5068V97.2744C264.411 96.5407 264.55 95.8867 264.828 95.3125C265.111 94.7337 265.503 94.2826 266.004 93.959C266.51 93.6309 267.057 93.4668 267.645 93.4668C268.606 93.4668 269.354 93.7835 269.887 94.417C270.42 95.0505 270.687 95.9574 270.687 97.1377V97.6641H265.676C265.694 98.3932 265.906 98.9834 266.312 99.4346C266.722 99.8812 267.241 100.104 267.87 100.104C268.317 100.104 268.695 100.013 269.005 99.8311C269.315 99.6488 269.586 99.4072 269.818 99.1064L270.591 99.708C269.971 100.66 269.041 101.137 267.802 101.137ZM267.645 94.5059C267.134 94.5059 266.706 94.6927 266.359 95.0664C266.013 95.4355 265.799 95.9551 265.717 96.625H269.422V96.5293C269.385 95.8867 269.212 95.39 268.902 95.0391C268.592 94.6836 268.173 94.5059 267.645 94.5059ZM268.26 90.5H269.791L267.959 92.5098H266.94L268.26 90.5Z" fill="white"/>
<path d="M212.805 140H211.485V135.399H206.468V140H205.155V130.047H206.468V134.326H211.485V130.047H212.805V140ZM214.603 136.233C214.603 135.509 214.744 134.857 215.026 134.278C215.313 133.7 215.71 133.253 216.216 132.938C216.726 132.624 217.307 132.467 217.959 132.467C218.966 132.467 219.78 132.815 220.399 133.513C221.024 134.21 221.336 135.137 221.336 136.295V136.384C221.336 137.104 221.197 137.751 220.919 138.325C220.646 138.895 220.251 139.339 219.736 139.658C219.226 139.977 218.638 140.137 217.973 140.137C216.97 140.137 216.157 139.788 215.532 139.091C214.912 138.394 214.603 137.471 214.603 136.322V136.233ZM215.874 136.384C215.874 137.204 216.063 137.863 216.441 138.359C216.824 138.856 217.335 139.104 217.973 139.104C218.615 139.104 219.126 138.854 219.504 138.353C219.882 137.847 220.071 137.14 220.071 136.233C220.071 135.422 219.878 134.766 219.49 134.265C219.107 133.759 218.597 133.506 217.959 133.506C217.335 133.506 216.831 133.754 216.448 134.251C216.065 134.748 215.874 135.459 215.874 136.384ZM226.497 133.738C226.306 133.706 226.098 133.69 225.875 133.69C225.046 133.69 224.483 134.044 224.187 134.75V140H222.922V132.604H224.152L224.173 133.458C224.588 132.797 225.175 132.467 225.937 132.467C226.183 132.467 226.369 132.499 226.497 132.562V133.738ZM229.04 140H227.775V132.604H229.04V140ZM227.673 130.642C227.673 130.437 227.734 130.263 227.857 130.122C227.985 129.981 228.172 129.91 228.418 129.91C228.664 129.91 228.851 129.981 228.979 130.122C229.106 130.263 229.17 130.437 229.17 130.642C229.17 130.847 229.106 131.018 228.979 131.154C228.851 131.291 228.664 131.359 228.418 131.359C228.172 131.359 227.985 131.291 227.857 131.154C227.734 131.018 227.673 130.847 227.673 130.642ZM232.26 138.968H236.587V140H230.715V139.07L234.796 133.649H230.776V132.604H236.382V133.499L232.26 138.968ZM237.571 136.233C237.571 135.509 237.713 134.857 237.995 134.278C238.282 133.7 238.679 133.253 239.185 132.938C239.695 132.624 240.276 132.467 240.928 132.467C241.935 132.467 242.748 132.815 243.368 133.513C243.993 134.21 244.305 135.137 244.305 136.295V136.384C244.305 137.104 244.166 137.751 243.888 138.325C243.614 138.895 243.22 139.339 242.705 139.658C242.195 139.977 241.607 140.137 240.941 140.137C239.939 140.137 239.125 139.788 238.501 139.091C237.881 138.394 237.571 137.471 237.571 136.322V136.233ZM238.843 136.384C238.843 137.204 239.032 137.863 239.41 138.359C239.793 138.856 240.303 139.104 240.941 139.104C241.584 139.104 242.094 138.854 242.473 138.353C242.851 137.847 243.04 137.14 243.04 136.233C243.04 135.422 242.846 134.766 242.459 134.265C242.076 133.759 241.566 133.506 240.928 133.506C240.303 133.506 239.8 133.754 239.417 134.251C239.034 134.748 238.843 135.459 238.843 136.384ZM247.087 132.604L247.128 133.533C247.693 132.822 248.431 132.467 249.343 132.467C250.906 132.467 251.694 133.349 251.708 135.112V140H250.443V135.105C250.439 134.572 250.316 134.178 250.074 133.923C249.837 133.668 249.466 133.54 248.96 133.54C248.55 133.54 248.19 133.649 247.88 133.868C247.57 134.087 247.328 134.374 247.155 134.729V140H245.891V132.604H247.087ZM256.78 136.24C256.78 135.105 257.049 134.194 257.587 133.506C258.125 132.813 258.829 132.467 259.699 132.467C260.565 132.467 261.251 132.763 261.757 133.355V129.5H263.021V140H261.859L261.798 139.207C261.292 139.827 260.588 140.137 259.686 140.137C258.829 140.137 258.129 139.786 257.587 139.084C257.049 138.382 256.78 137.466 256.78 136.336V136.24ZM258.045 136.384C258.045 137.222 258.218 137.879 258.564 138.353C258.911 138.826 259.389 139.063 260 139.063C260.802 139.063 261.388 138.703 261.757 137.983V134.586C261.379 133.889 260.798 133.54 260.014 133.54C259.394 133.54 258.911 133.779 258.564 134.258C258.218 134.736 258.045 135.445 258.045 136.384ZM268.06 140.137C267.057 140.137 266.241 139.809 265.612 139.152C264.983 138.492 264.669 137.61 264.669 136.507V136.274C264.669 135.541 264.808 134.887 265.086 134.312C265.368 133.734 265.76 133.283 266.262 132.959C266.768 132.631 267.314 132.467 267.902 132.467C268.864 132.467 269.611 132.784 270.145 133.417C270.678 134.05 270.944 134.957 270.944 136.138V136.664H265.934C265.952 137.393 266.164 137.983 266.569 138.435C266.979 138.881 267.499 139.104 268.128 139.104C268.575 139.104 268.953 139.013 269.263 138.831C269.573 138.649 269.844 138.407 270.076 138.106L270.849 138.708C270.229 139.66 269.299 140.137 268.06 140.137ZM267.902 133.506C267.392 133.506 266.964 133.693 266.617 134.066C266.271 134.436 266.057 134.955 265.975 135.625H269.68V135.529C269.643 134.887 269.47 134.39 269.16 134.039C268.85 133.684 268.431 133.506 267.902 133.506ZM276.721 138.038C276.721 137.696 276.591 137.432 276.331 137.245C276.076 137.054 275.627 136.89 274.984 136.753C274.346 136.616 273.838 136.452 273.46 136.261C273.086 136.069 272.808 135.841 272.626 135.577C272.448 135.313 272.359 134.998 272.359 134.634C272.359 134.028 272.615 133.515 273.125 133.096C273.64 132.676 274.296 132.467 275.094 132.467C275.932 132.467 276.611 132.683 277.131 133.116C277.655 133.549 277.917 134.103 277.917 134.777H276.646C276.646 134.431 276.497 134.132 276.201 133.882C275.91 133.631 275.54 133.506 275.094 133.506C274.633 133.506 274.273 133.606 274.014 133.807C273.754 134.007 273.624 134.269 273.624 134.593C273.624 134.898 273.745 135.128 273.986 135.283C274.228 135.438 274.663 135.586 275.292 135.728C275.925 135.869 276.438 136.037 276.83 136.233C277.222 136.429 277.511 136.666 277.698 136.944C277.89 137.218 277.985 137.553 277.985 137.949C277.985 138.61 277.721 139.141 277.192 139.542C276.664 139.938 275.978 140.137 275.135 140.137C274.542 140.137 274.018 140.032 273.562 139.822C273.107 139.613 272.749 139.321 272.489 138.947C272.234 138.569 272.106 138.161 272.106 137.724H273.371C273.394 138.147 273.562 138.485 273.877 138.735C274.196 138.981 274.615 139.104 275.135 139.104C275.613 139.104 275.996 139.009 276.283 138.817C276.575 138.621 276.721 138.362 276.721 138.038ZM286.175 140.137C285.172 140.137 284.356 139.809 283.728 139.152C283.099 138.492 282.784 137.61 282.784 136.507V136.274C282.784 135.541 282.923 134.887 283.201 134.312C283.484 133.734 283.876 133.283 284.377 132.959C284.883 132.631 285.43 132.467 286.018 132.467C286.979 132.467 287.727 132.784 288.26 133.417C288.793 134.05 289.06 134.957 289.06 136.138V136.664H284.049C284.067 137.393 284.279 137.983 284.685 138.435C285.095 138.881 285.614 139.104 286.243 139.104C286.69 139.104 287.068 139.013 287.378 138.831C287.688 138.649 287.959 138.407 288.191 138.106L288.964 138.708C288.344 139.66 287.414 140.137 286.175 140.137ZM286.018 133.506C285.507 133.506 285.079 133.693 284.732 134.066C284.386 134.436 284.172 134.955 284.09 135.625H287.795V135.529C287.758 134.887 287.585 134.39 287.275 134.039C286.965 133.684 286.546 133.506 286.018 133.506ZM286.633 129.5H288.164L286.332 131.51H285.313L286.633 129.5ZM292.874 138.284L294.706 132.604H295.998L293.346 140H292.382L289.702 132.604H290.994L292.874 138.284ZM300.188 140.137C299.186 140.137 298.37 139.809 297.741 139.152C297.112 138.492 296.798 137.61 296.798 136.507V136.274C296.798 135.541 296.937 134.887 297.215 134.312C297.497 133.734 297.889 133.283 298.391 132.959C298.896 132.631 299.443 132.467 300.031 132.467C300.993 132.467 301.74 132.784 302.273 133.417C302.807 134.05 303.073 134.957 303.073 136.138V136.664H298.062C298.081 137.393 298.293 137.983 298.698 138.435C299.108 138.881 299.628 139.104 300.257 139.104C300.703 139.104 301.082 139.013 301.392 138.831C301.701 138.649 301.973 138.407 302.205 138.106L302.978 138.708C302.358 139.66 301.428 140.137 300.188 140.137ZM300.031 133.506C299.521 133.506 299.092 133.693 298.746 134.066C298.4 134.436 298.186 134.955 298.104 135.625H301.809V135.529C301.772 134.887 301.599 134.39 301.289 134.039C300.979 133.684 300.56 133.506 300.031 133.506ZM300.646 129.5H302.178L300.346 131.51H299.327L300.646 129.5ZM305.739 132.604L305.78 133.533C306.345 132.822 307.084 132.467 307.995 132.467C309.558 132.467 310.347 133.349 310.36 135.112V140H309.096V135.105C309.091 134.572 308.968 134.178 308.727 133.923C308.49 133.668 308.118 133.54 307.612 133.54C307.202 133.54 306.842 133.649 306.532 133.868C306.222 134.087 305.981 134.374 305.808 134.729V140H304.543V132.604H305.739ZM315.337 140.137C314.334 140.137 313.519 139.809 312.89 139.152C312.261 138.492 311.946 137.61 311.946 136.507V136.274C311.946 135.541 312.085 134.887 312.363 134.312C312.646 133.734 313.038 133.283 313.539 132.959C314.045 132.631 314.592 132.467 315.18 132.467C316.141 132.467 316.889 132.784 317.422 133.417C317.955 134.05 318.222 134.957 318.222 136.138V136.664H313.211C313.229 137.393 313.441 137.983 313.847 138.435C314.257 138.881 314.776 139.104 315.405 139.104C315.852 139.104 316.23 139.013 316.54 138.831C316.85 138.649 317.121 138.407 317.354 138.106L318.126 138.708C317.506 139.66 316.576 140.137 315.337 140.137ZM315.18 133.506C314.669 133.506 314.241 133.693 313.895 134.066C313.548 134.436 313.334 134.955 313.252 135.625H316.957V135.529C316.921 134.887 316.747 134.39 316.438 134.039C316.128 133.684 315.708 133.506 315.18 133.506ZM320.881 132.604L320.915 133.424C321.457 132.786 322.189 132.467 323.109 132.467C324.144 132.467 324.848 132.863 325.222 133.656C325.468 133.301 325.787 133.014 326.179 132.795C326.575 132.576 327.042 132.467 327.58 132.467C329.202 132.467 330.027 133.326 330.055 135.044V140H328.79V135.119C328.79 134.59 328.669 134.196 328.428 133.937C328.186 133.672 327.781 133.54 327.211 133.54C326.742 133.54 326.352 133.681 326.042 133.964C325.732 134.242 325.552 134.618 325.502 135.092V140H324.23V135.153C324.23 134.078 323.704 133.54 322.651 133.54C321.822 133.54 321.255 133.893 320.949 134.6V140H319.685V132.604H320.881ZM335.038 140.137C334.035 140.137 333.22 139.809 332.591 139.152C331.962 138.492 331.647 137.61 331.647 136.507V136.274C331.647 135.541 331.786 134.887 332.064 134.312C332.347 133.734 332.739 133.283 333.24 132.959C333.746 132.631 334.293 132.467 334.881 132.467C335.842 132.467 336.59 132.784 337.123 133.417C337.656 134.05 337.923 134.957 337.923 136.138V136.664H332.912C332.93 137.393 333.142 137.983 333.548 138.435C333.958 138.881 334.478 139.104 335.106 139.104C335.553 139.104 335.931 139.013 336.241 138.831C336.551 138.649 336.822 138.407 337.055 138.106L337.827 138.708C337.207 139.66 336.278 140.137 335.038 140.137ZM334.881 133.506C334.37 133.506 333.942 133.693 333.596 134.066C333.249 134.436 333.035 134.955 332.953 135.625H336.658V135.529C336.622 134.887 336.449 134.39 336.139 134.039C335.829 133.684 335.41 133.506 334.881 133.506ZM340.589 132.604L340.63 133.533C341.195 132.822 341.933 132.467 342.845 132.467C344.408 132.467 345.196 133.349 345.21 135.112V140H343.945V135.105C343.941 134.572 343.818 134.178 343.576 133.923C343.339 133.668 342.968 133.54 342.462 133.54C342.052 133.54 341.692 133.649 341.382 133.868C341.072 134.087 340.83 134.374 340.657 134.729V140H339.393V132.604H340.589ZM348.833 130.812V132.604H350.214V133.581H348.833V138.168C348.833 138.464 348.895 138.688 349.018 138.838C349.141 138.984 349.35 139.057 349.646 139.057C349.792 139.057 349.993 139.029 350.248 138.975V140C349.915 140.091 349.592 140.137 349.277 140.137C348.712 140.137 348.286 139.966 347.999 139.624C347.712 139.282 347.568 138.797 347.568 138.168V133.581H346.222V132.604H347.568V130.812H348.833ZM356.004 138.038C356.004 137.696 355.874 137.432 355.614 137.245C355.359 137.054 354.91 136.89 354.268 136.753C353.63 136.616 353.121 136.452 352.743 136.261C352.369 136.069 352.091 135.841 351.909 135.577C351.731 135.313 351.643 134.998 351.643 134.634C351.643 134.028 351.898 133.515 352.408 133.096C352.923 132.676 353.579 132.467 354.377 132.467C355.215 132.467 355.895 132.683 356.414 133.116C356.938 133.549 357.2 134.103 357.2 134.777H355.929C355.929 134.431 355.781 134.132 355.484 133.882C355.193 133.631 354.824 133.506 354.377 133.506C353.917 133.506 353.557 133.606 353.297 133.807C353.037 134.007 352.907 134.269 352.907 134.593C352.907 134.898 353.028 135.128 353.27 135.283C353.511 135.438 353.946 135.586 354.575 135.728C355.209 135.869 355.721 136.037 356.113 136.233C356.505 136.429 356.795 136.666 356.981 136.944C357.173 137.218 357.269 137.553 357.269 137.949C357.269 138.61 357.004 139.141 356.476 139.542C355.947 139.938 355.261 140.137 354.418 140.137C353.826 140.137 353.301 140.032 352.846 139.822C352.39 139.613 352.032 139.321 351.772 138.947C351.517 138.569 351.39 138.161 351.39 137.724H352.654C352.677 138.147 352.846 138.485 353.16 138.735C353.479 138.981 353.898 139.104 354.418 139.104C354.896 139.104 355.279 139.009 355.566 138.817C355.858 138.621 356.004 138.362 356.004 138.038Z" fill="white"/>
<defs>
<filter id="filter0_bf" x="0" y="0" width="208" height="208" filterUnits="userSpaceOnUse" color-interpolation-filters="sRGB">
<feFlood flood-opacity="0" result="BackgroundImageFix"/>
<feGaussianBlur in="BackgroundImage" stdDeviation="2"/>
<feComposite in2="SourceAlpha" operator="in" result="effect1_backgroundBlur"/>
<feBlend mode="normal" in="SourceGraphic" in2="effect1_backgroundBlur" result="shape"/>
<feGaussianBlur stdDeviation="2" result="effect2_foregroundBlur"/>
</filter>
<filter id="filter1_b" x="25" y="25" width="158" height="158" filterUnits="userSpaceOnUse" color-interpolation-filters="sRGB">
<feFlood flood-opacity="0" result="BackgroundImageFix"/>
<feGaussianBlur in="BackgroundImage" stdDeviation="2"/>
<feComposite in2="SourceAlpha" operator="in" result="effect1_backgroundBlur"/>
<feBlend mode="normal" in="SourceGraphic" in2="effect1_backgroundBlur" result="shape"/>
</filter>
<filter id="filter2_d" x="110" y="96.636" width="165" height="22.7279" filterUnits="userSpaceOnUse" color-interpolation-filters="sRGB">
<feFlood flood-opacity="0" result="BackgroundImageFix"/>
<feColorMatrix in="SourceAlpha" type="matrix" values="0 0 0 0 0 0 0 0 0 0 0 0 0 0 0 0 0 0 127 0"/>
<feOffset dy="4"/>
<feGaussianBlur stdDeviation="2"/>
<feColorMatrix type="matrix" values="0 0 0 0 0 0 0 0 0 0 0 0 0 0 0 0 0 0 1 0"/>
<feBlend mode="normal" in2="BackgroundImageFix" result="effect1_dropShadow"/>
<feBlend mode="normal" in="SourceGraphic" in2="effect1_dropShadow" result="shape"/>
</filter>
<filter id="filter3_d" x="163" y="137.67" width="199.005" height="22.7277" filterUnits="userSpaceOnUse" color-interpolation-filters="sRGB">
<feFlood flood-opacity="0" result="BackgroundImageFix"/>
<feColorMatrix in="SourceAlpha" type="matrix" values="0 0 0 0 0 0 0 0 0 0 0 0 0 0 0 0 0 0 127 0"/>
<feOffset dy="4"/>
<feGaussianBlur stdDeviation="2"/>
<feColorMatrix type="matrix" values="0 0 0 0 0 0 0 0 0 0 0 0 0 0 0 0 0 0 1 0"/>
<feBlend mode="normal" in2="BackgroundImageFix" result="effect1_dropShadow"/>
<feBlend mode="normal" in="SourceGraphic" in2="effect1_dropShadow" result="shape"/>
</filter>
<radialGradient id="paint0_radial" cx="0" cy="0" r="1" gradientUnits="userSpaceOnUse" gradientTransform="translate(104 104) rotate(87.3493) scale(108.116)">
<stop stop-color="#9C9C9C" stop-opacity="0.71"/>
<stop offset="0.713491" stop-color="#E0D4CE"/>
<stop offset="0.79" stop-color="#F8BF2D" stop-opacity="0.99"/>
<stop offset="0.896313" stop-color="#FB620D" stop-opacity="0.671875"/>
</radialGradient>
</defs>
</svg>
